<svg xmlns="http://www.w3.org/2000/svg" width="100" height="100" enable-background="new 0 0 100 100" version="1" viewBox="0 0 100 100"><path d="M90,28.667C86.354,19.867,79.485,13.381,71.335,10l-4.616,12.305c-9.642-3.176-22.952,0.932-33.216,11.196
	C23.235,43.765,19.131,57.074,22.305,66.719L10,71.335C13.643,80.134,20.515,86.621,28.665,90l4.616-12.305
	c9.646,3.174,22.956-0.935,33.22-11.194c10.264-10.267,14.368-23.576,11.194-33.22L90,28.667z M74.851,19.609
	c2.103,1.576,3.968,3.438,5.54,5.541l-5.983,2.244c-0.276-0.322-0.533-0.661-0.836-0.965c-0.303-0.305-0.642-0.559-0.964-0.836
	L74.851,19.609z M59.873,27.893c2.617,0,6.299,0.564,8.984,3.25c2.578,2.578,3.562,6.41,3.177,10.725
	c-5.921-4.939-13.301-8.123-21.211-8.516c-1.158-0.057-2.373-1.13-2.822-2.292C51.976,29.033,56.064,27.893,59.873,27.893z
	 M42.331,34.652c1.624,2.98,4.739,5.188,8.16,5.357c7.588,0.376,14.577,3.892,19.736,9.194c-0.833,2.087-1.937,4.188-3.281,6.241
	c-4.085-5.025-10.143-8.447-16.787-8.777c-5.26-0.262-9.964-3.262-12.822-7.518c0.293-0.313,0.573-0.631,0.879-0.936
	C39.524,36.906,40.911,35.736,42.331,34.652z M25.149,80.391c-2.103-1.572-3.968-3.435-5.54-5.54l5.983-2.243
	c0.279,0.322,0.533,0.661,0.836,0.964s0.642,0.56,0.967,0.836L25.149,80.391z M40.127,72.106c-2.614,0-6.299-0.563-8.984-3.249
	c-2.575-2.578-3.564-6.41-3.181-10.719c5.918,4.934,13.301,8.115,21.205,8.505c1.165,0.059,2.379,1.137,2.825,2.302
	C48.018,70.967,43.933,72.106,40.127,72.106z M57.663,65.355c-1.618-2.988-4.74-5.195-8.164-5.369
	c-7.585-0.377-14.57-3.887-19.727-9.186c0.833-2.088,1.934-4.189,3.281-6.242C37.136,49.58,43.19,53,49.831,53.328
	c5.267,0.262,9.971,3.264,12.825,7.527c-0.29,0.311-0.566,0.629-0.869,0.932C60.476,63.1,59.085,64.268,57.663,65.355z"/></svg>