<svg xmlns="http://www.w3.org/2000/svg" enable-background="new 0 0 50 50" viewBox="0 0 50 50"><path d="M1.82577,22.51297c-0.6702,0.2995-0.5853,1.0231-0.7359,1.4794c-0.4409,2.1192,0.8931,8.3526,1.0425,9.0362
		c2.09571,10.6504,10.2251,15.417,17.352,15.417c6.5206,0,12.1335-3.62,15.122-9.7025c2.6604-0.637,5.2485-1.9866,7.5128-3.9411
		c2.4595-2.1211,4.481-4.8945,5.8457-8.0176c4.22021-9.6152-5.811-22.955-6.2402-23.5185c-0.209-0.2744-0.5469-0.4219-0.8897-0.3887
		c-0.30089,0.0283-7.2242,0.7217-13.3233,3.7174c-3.8904-3.0108-7.6604-4.8585-7.82559-4.9391
		c-0.27641-0.1347-0.59771-0.1347-0.874,0c-0.66361,0.3223-16.25931,8.0108-16.25931,17.9131c0,1.0022,0.0842,1.9906,0.2345,2.9586
		C2.49987,22.46887,2.21327,22.33916,1.82577,22.51297z M19.48437,46.44556c-6.3081,0-13.5131-4.2676-15.394-13.8233
		c-0.5171-2.3711-1.2329-6.4931-1.0767-7.998c3.93241,1.0071,6.36841,3.7406,7.2588,6.9004
		c0.0005,0.0019,0.0015,0.0049,0.002,0.0078c0.0932,0.456,0.49661,0.7988,0.98,0.7988c0.5522,0,1-0.4473,1-1
		c0-0.0127-0.0005-0.0244-0.001-0.0371c0.0005-0.0137,0.001-0.0273,0.001-0.041c0-4.6826,5.288-8.793,6.9155-9.9453
		c0.0312-0.0225,0.0615-0.0449,0.0908-0.0655c2.1021,1.504,6.9927,5.4981,6.9927,10.1084c0,0.5528,0.4477,1,1,1
		c0.4712,0,0.8657-0.3252,0.9722-0.7636c0.0068-0.0196,0.0131-0.0391,0.0185-0.0596c0.9216-3.2251,3.405-5.8944,7.2461-6.9004
		c0.1454,1.8506-0.9974,9.3674-2.39019,12.624c-0.02991,0.0699-0.05911,0.1487-0.08931,0.2149
		C30.41908,43.08937,25.36277,46.44556,19.48437,46.44556z M40.46387,4.93387c1.6768,2.3671,9.0157,13.4228,5.669,21.0478
		c-1.2461,2.8525-3.086,5.3789-5.3203,7.3066c-1.6192,1.3975-3.4151,2.4522-5.27249,3.1065
		c0.87069-2.7642,2.33959-10.2142,1.874-12.4219c-0.16911-0.5688-0.12841-1.1542-0.63471-1.4336
		c-0.4284-0.235-0.9319-0.033-1.0371-0.0254c0.7337-4.8131-0.182-8.9796-6.3844-14.4009c-0.0467-0.0408-0.0856-0.0817-0.1327-0.1225
		C33.82037,5.92597,38.81747,5.14667,40.46387,4.93387z M4.91267,23.08417c-0.2388-1.1347-0.3599-2.3154-0.3599-3.5156
		c0-7.8135,12.2134-14.5937,14.69731-15.8916c1.14839,0.5986,4.37589,2.3643,7.51709,4.8731
		c5.301,4.2218,8.1503,8.1294,6.8324,14.5427c-2.115,0.7593-4.475,2.4919-5.9648,4.9075c-0.4884-1.2955-1.2274-2.4998-2.0759-3.5865
		c-1.8666-2.3906-4.2626-4.2119-5.6843-5.1821c-0.0569-0.0433-0.12149-0.0708-0.185-0.1003
		c-0.6352-0.2985-1.0888,0.1209-1.6827,0.5485c-2.8364,2.0096-5.8725,5.0613-7.1035,8.2823
		C9.42927,25.51747,6.91447,23.74726,4.91267,23.08417z"/><path d="M31.64997 32.56956c-.5186-.1895-1.0928.083-1.2798.6016-.021.0576-2.1323 5.8134-6.5537 8.6484-.46539.2978-.6006.917-.3023 1.3818.2976.4643.9177.6 1.3814.3018 4.9878-3.1973 7.2622-9.3926 7.3564-9.6543C32.43896 33.32936 32.16947 32.75607 31.64997 32.56956zM39.11287 31.82057c.1191-.0801 2.9668-2.0362 6.3188-8.7959.2451-.4951.043-1.0948-.4517-1.3399-.4956-.2461-1.0947-.0429-1.3403.4512-3.0547 6.1611-5.5893 7.9873-5.645 8.0264C36.89837 30.90737 38.02747 32.54617 39.11287 31.82057z"/></svg>