<svg xmlns="http://www.w3.org/2000/svg" data-name="Layer 1" viewBox="0 0 512 512"><path d="M405.485,291H399V34.636c0-4.419-3.728-7.636-8.146-7.636H121.146C116.728,27,113,30.217,113,34.636V291h-6.485C102.1,291,99,294.836,99,299.255V477.364A7.3,7.3,0,0,0,106.515,485h298.97A7.3,7.3,0,0,0,413,477.364V299.255C413,294.836,409.9,291,405.485,291ZM121.146,307H397v48H238.535l-23.1-23.168a7.912,7.912,0,0,0-11.7.434L184.072,355H115V307ZM200,129h48v73H200Zm-16,73H129V129h55Zm199,0H328V129h55Zm-71,0H264V129h48Zm-48,89V218h48v73Zm0-178V43h48v70Zm-16,0H200V43h48Zm0,105v73H200V218Zm80,73V218h55v73Zm55-178H328V43h55ZM184,43v70H129V43ZM129,218h55v73H129ZM115,469V371h72.725a8.067,8.067,0,0,0,6.045-2.827L210.2,349.187l19.368,19.419A8.048,8.048,0,0,0,235.221,371H397v98Z"/></svg>